<svg width="31" height="31" viewBox="0 0 31 31" fill="none" xmlns="http://www.w3.org/2000/svg">
<path d="M28.3889 21.1389C26.375 21.1389 24.4417 20.8167 22.6372 20.2206C22.3539 20.1303 22.0515 20.1186 21.7621 20.1867C21.4727 20.2548 21.2072 20.4002 20.9939 20.6072L17.4494 24.1517C12.8758 21.8256 9.15831 18.1081 6.83222 13.5344L10.3767 9.97389C10.5901 9.77144 10.7413 9.51234 10.8126 9.22698C10.884 8.94161 10.8725 8.64183 10.7794 8.36278C10.1683 6.50687 9.85823 4.56506 9.86111 2.61111C9.86111 1.725 9.13611 1 8.25 1H2.61111C1.725 1 1 1.725 1 2.61111C1 17.7394 13.2606 30 28.3889 30C29.275 30 30 29.275 30 28.3889V22.75C30 21.8639 29.275 21.1389 28.3889 21.1389ZM26.7778 15.5H30C30 11.6544 28.4723 7.96623 25.753 5.24695C23.0338 2.52767 19.3456 1 15.5 1V4.22222C21.735 4.22222 26.7778 9.265 26.7778 15.5ZM20.3333 15.5H23.5556C23.5556 11.0533 19.9467 7.44444 15.5 7.44444V10.6667C18.1744 10.6667 20.3333 12.8256 20.3333 15.5Z" stroke="white" stroke-width="2"/>
</svg>
